<svg xmlns="http://www.w3.org/2000/svg" viewBox="130 308 770 400" width="770" height="400"><mask id="logoCut" maskUnits="userSpaceOnUse" x="0" y="0" width="1024" height="1024"><path fill="white" d="M345.522 532.162C346.033 477.855 349.058 407.001 389.841 365.436C408.429 345.824 439.397 341.888 459.276 361.872C466.323 368.957 476.062 387.164 469.752 396.878C466.695 401.584 459.739 393.073 457.147 392.123C445.718 387.935 432.395 392.208 423.076 399.367C393.932 422.522 379.925 468.31 375.225 503.418C369.391 547.003 380.665 633.193 398.7 671.916C397.399 678.239 385.458 675.258 381.318 673.818C344.643 661.06 332.333 614.275 322.032 581.078C314.878 558.022 309.44 534.601 303.802 511.4C298.259 568.31 285.482 634.648 238.48 673.381C214.543 693.107 181.173 699.362 158.053 673.43C149.059 663.342 147.012 646.358 148.355 633.554C149.159 625.207 155.33 607.431 162.862 603.051C170.241 604.17 165.456 629.351 182.962 632.897C228.404 642.102 255.995 586.084 263.746 549.33C271.891 510.704 273.228 467.619 266.96 428.341C264.171 409.72 260.973 392.055 251.042 375.517C247.13 369.003 242.077 365.15 236.542 360.374C271.649 345.306 298.559 376.503 310.266 406.337C326.274 447.133 332.511 490.683 344.19 532.812L345.522 532.162Z"/><path fill="white" d="M345.522 532.162C345.495 535.23 345.165 536.878 344.19 532.812L345.522 532.162Z"/><path fill="white" d="M839.307 369.086C842.993 368.916 846.128 368.84 848.279 372.371C852.101 378.643 846.713 388.318 844.267 394.436C835.932 415.284 827.921 436.28 822.468 458.085C847.786 458.247 860.893 448.737 869.204 425.323C878.198 437.33 878.735 458.418 867.362 469.121C852.873 482.757 832.854 482.094 814.402 482.085C809.846 505.269 805.816 537.314 817.737 558.754C819.855 562.909 825.468 568.915 830.191 569.529C848.404 571.898 860.38 549.398 859.559 533.548C859.397 530.412 858.455 526.643 858.998 524.122L860.28 523.737C866.687 524.898 873.08 542.549 874.057 548.294C877.242 567.022 877.344 588.578 866.976 605.194C854.241 625.605 828.572 630.623 808.776 617.416C792.324 606.483 783.479 588.584 779.337 569.755C771.812 536.759 778.56 507.933 782.716 475.825C770.366 472.805 759.306 468.571 747.415 464.279C723.856 455.775 697.935 446.239 673.323 441.89C656.003 438.829 631.538 440.538 616.481 450.162C612.308 452.829 607.259 457.314 602.957 460.466C598.758 458.088 598.841 442.796 599.465 438.278C603.854 406.506 630.694 390.276 661.447 394.716C685.279 398.156 703.969 409.522 724.836 420.643C740.324 428.896 755.416 437.844 771.401 445.116C776.798 447.576 782.587 450.481 788.225 452.238L788.975 452.468C793.066 438.894 797.211 423.588 803.483 410.926C812.546 392.629 819.008 376.415 839.307 369.086Z"/><path fill="white" d="M546.76 333.091C561.305 332.05 574.619 338.251 581.117 351.816C599.381 389.947 568.27 431.301 540.313 455.246C535.531 459.342 531.026 463.678 525.366 466.589C526.137 479.406 530.434 497.174 537.421 507.966C538.511 498.597 539.694 490.088 543.979 481.615C548.149 473.367 559.6 460.551 568.502 457.881C572.585 456.699 576.974 457.232 580.655 459.358C592.898 466.543 589.699 491.236 588.396 503.376C585.49 530.467 580.621 557.508 587.703 584.506C590.49 595.131 596.455 606.125 606.273 611.888C619.81 619.36 627.277 603.219 631.922 593.981C634.305 598.122 635.458 603.817 635.579 608.569C635.993 624.72 633.618 636.587 622.651 648.553C614.248 655.966 601.776 659.646 590.769 656.878C574.654 652.677 561.459 633.196 558.003 617.79C549.305 579.025 557.871 538.088 561.858 499.22C562.105 496.816 562.832 493.52 561.584 491.42L560.455 491.338C558.593 493.045 556.887 498.545 555.97 500.916C548.911 519.159 546.44 538.467 543.187 557.623C542.392 561.529 541.738 570.755 536.804 571.761C530.8 572.986 524.11 563.581 521.956 558.907C517.084 548.335 514.882 536.774 511.686 525.664C506.471 507.533 501.849 489.324 497.12 471.071C487.227 427.208 494.097 344.749 546.76 333.091Z"/><path fill="black" d="M551.766 372.571C579.813 371.09 541.445 435.505 531.92 444.956C529.319 446.871 528.355 447.318 525.533 448.655C524.698 428.357 529.75 380.3 551.766 372.571Z"/><path fill="white" d="M635.393 560.735C630.837 571.041 622.6 585.302 609.285 580.608C586.64 572.625 590.728 534.475 595.813 517.044C601.186 498.629 610.263 476.156 627.962 466.852C643.434 458.718 651.204 463.366 658.03 477.928C659.232 475.662 664.658 464.166 666.408 463.65C668.122 467.065 669.304 466.064 671.371 468.446C678.157 476.267 672.451 490.297 670.387 499.032C666.864 512.98 663.096 527.032 662.451 541.45C662.273 545.42 663.726 561.45 669.474 559.493C681.65 555.347 683.274 526.648 684.822 516.539C685.626 511.261 686.67 506.021 687.949 500.837C690.613 490.208 698.897 466.014 711.272 465.671C719.505 465.444 720.983 496.259 719.548 502.007C718.612 505.752 718.216 512.209 717.857 515.662C718.247 518.521 717.898 521.589 718.405 525.123C721.418 509.976 733.991 477.608 754.518 481.947C758.021 482.688 762.408 484.715 764.348 488.06C770.964 501.915 764.193 526.819 763.691 541.297C762.958 566.451 763.842 595.171 778.762 616.488C784.114 624.136 791.332 630.706 800.52 633.079C809.246 635.333 813.845 630.867 819.121 624.89C818.041 629.451 817.183 633.348 815.413 637.745C803.601 667.087 764.051 674.256 747.332 644.884C735.997 624.941 735.492 600.463 735.47 578.055C735.456 563.306 737.473 548.055 738.923 533.387C739.23 530.274 742.665 510.849 741.138 509.212C736.713 512.003 728.765 536.185 727.008 542.129C724.302 551.286 722.198 562.567 722.431 572.309C722.603 579.501 721.221 601.577 709.535 598.745C695.192 595.268 691.934 573.675 692.014 560.903C691.513 559.687 691.688 558.463 690.662 559.249C688.667 570.106 684.595 582.635 678.791 592.046C672.674 601.967 662.755 604.281 653.083 597.309C640.704 588.386 637.99 574.889 635.393 560.735Z"/><path fill="white" d="M717.857 515.662C718.247 518.521 717.898 521.589 718.405 525.123C718.363 525.502 718.47 526.246 717.935 526.247C717.175 525.785 717.226 516.812 717.857 515.662Z"/><path fill="white" d="M691.602 552.971C691.946 556.394 692.102 557.323 692.014 560.903C691.513 559.687 691.688 558.463 690.662 559.249C690.86 557.149 691.248 555.051 691.602 552.971Z"/><path fill="black" d="M639.95 485.778C641.588 486.317 642.774 488.254 643.61 489.732C647.496 496.601 643.713 506.08 641.863 513.235C639.447 522.576 634.397 537.847 625.451 542.894C618.923 542.262 619.645 533.438 619.723 528.335C619.947 513.549 629.222 495.531 639.95 485.778Z"/><path fill="white" d="M469.55 456.654C496.337 453.695 501.07 497.693 485.903 502.304C479.311 500.635 481.174 480.688 472.481 481.559C459.696 489.401 476.199 511.864 482.709 518.911C515.641 554.559 551.63 602.588 530.551 653.598C524.501 668.233 512.87 679.855 498.229 685.891C470.945 696.865 438.553 687.303 427.242 658.625C415.482 626.901 427.252 591.602 458.047 574.963C462.188 572.726 474.281 571.541 470.81 579.84C464.355 595.276 453.498 610.43 455.368 628.071C457.531 647.452 478.809 650.254 489.012 634.797C507.785 606.356 490.182 574.243 473.876 549.436C462.909 532.11 448.523 514.562 444.599 493.977C440.977 474.981 449.986 459.661 469.55 456.654Z"/><path fill="white" d="M221.779 469.522C227.402 469.187 231.711 472.284 231.55 478.088C230.903 501.453 217.449 522.533 218.378 546.684C218.581 551.971 218.3 568.935 226.104 568.593C233.574 563.978 233.472 541.942 244.559 538.602C247.227 537.798 249.191 541.271 249.59 543.398C251.105 551.479 247.389 559.81 244.711 567.268C241.757 575.307 237.764 582.923 233.071 590.217C223.599 603.186 212.955 611.609 196.044 604.657C189.554 601.989 183.019 593.99 180.853 587.134C172.891 561.928 178.029 530.57 188.188 506.597C194.638 492.475 206.887 475.032 221.779 469.522Z"/><path fill="white" d="M414.183 469.108C420.09 469.092 430.731 471.704 429.775 478.95C427.416 496.824 417.918 513.599 418.261 532.156C418.075 537.801 419.835 548.578 424.587 552.089C433.609 558.755 438.868 534.281 444.155 533.616C446.474 535.239 447.342 540.015 447.462 542.67C447.993 554.399 443.104 565.409 436.992 575.054C428.308 587.257 416.243 594.33 401.23 585.286C393.803 580.812 388.357 567.916 386.918 559.49C382.876 535.274 390.133 509.459 400.005 487.424C402.659 481.501 407.38 470.325 414.183 469.108Z"/><path fill="white" d="M222.785 406.485C232.483 405.286 242.076 409.397 247.895 417.246C253.715 425.095 254.861 435.469 250.896 444.4C246.931 453.33 238.467 459.437 228.741 460.383C213.973 461.821 200.792 451.122 199.162 436.374C197.533 421.626 208.059 408.307 222.785 406.485Z"/><path fill="white" d="M428.762 415.643C454.179 413.863 460.983 454.955 428.142 459.862C399.972 462.524 398.044 420.179 428.762 415.643Z"/></mask><rect x="0" y="0" width="1024" height="1024" fill="#E63946" mask="url(#logoCut)"/></svg>